<svg width="29" height="25" viewBox="0 0 29 25" fill="none" xmlns="http://www.w3.org/2000/svg">
<g id="Layer 2 1">
<g id="Layer 1 2">
<g id="format align left">
<path id="Vector" d="M26.8754 2.875H2.12539C1.34622 2.875 0.750389 2.27916 0.750389 1.5C0.750389 0.720833 1.34622 0.125 2.12539 0.125H26.8754C27.6546 0.125 28.2504 0.720833 28.2504 1.5C28.2504 2.27916 27.6546 2.875 26.8754 2.875Z" fill="#464255"/>
<path id="Vector_2" d="M18.6254 10.2083H2.12539C1.34622 10.2083 0.750389 9.61242 0.750389 8.83325C0.750389 8.05408 1.34622 7.45825 2.12539 7.45825H18.6254C19.4046 7.45825 20.0004 8.05408 20.0004 8.83325C20.0004 9.61242 19.4046 10.2083 18.6254 10.2083Z" fill="#464255"/>
<path id="Vector_3" d="M26.8754 17.5415H2.12539C1.34622 17.5415 0.750389 16.9457 0.750389 16.1665C0.750389 15.3873 1.34622 14.7915 2.12539 14.7915H26.8754C27.6546 14.7915 28.2504 15.3873 28.2504 16.1665C28.2504 16.9457 27.6546 17.5415 26.8754 17.5415Z" fill="#464255"/>
<path id="Vector_4" d="M18.6254 24.875H2.12539C1.34622 24.875 0.750389 24.2792 0.750389 23.5C0.750389 22.7208 1.34622 22.125 2.12539 22.125H18.6254C19.4046 22.125 20.0004 22.7208 20.0004 23.5C20.0004 24.2792 19.4046 24.875 18.6254 24.875Z" fill="#464255"/>
</g>
</g>
</g>
</svg>
